<?xml version="1.0" standalone="no"?>
<!DOCTYPE svg PUBLIC "-//W3C//DTD SVG 20010904//EN"
 "http://www.w3.org/TR/2001/REC-SVG-20010904/DTD/svg10.dtd">
<svg version="1.0" xmlns="http://www.w3.org/2000/svg"
 width="100.000000pt" height="100.000000pt" viewBox="0 0 100.000000 100.000000"
 preserveAspectRatio="xMidYMid meet">
<metadata>
Created by potrace 1.14, written by Peter Selinger 2001-2017
</metadata>
<g transform="translate(0.000000,100.000000) scale(0.100000,-0.100000)"
fill="#000000" stroke="none">
<path d="M115 983 c-47 -24 -76 -54 -96 -98 -16 -36 -18 -74 -17 -384 0 -205
5 -357 11 -375 5 -17 23 -45 40 -63 59 -63 55 -63 457 -60 l365 2 35 25 c90
63 90 65 90 472 0 380 -1 389 -57 442 -58 55 -65 55 -446 55 -300 0 -356 -2
-382 -16z"/>
</g>
</svg>
